<?xml version="1.0" encoding="utf-8" standalone="no"?>
<!DOCTYPE svg PUBLIC "-//W3C//DTD SVG 1.1//EN"
  "http://www.w3.org/Graphics/SVG/1.1/DTD/svg11.dtd">
<!-- Created with matplotlib (https://matplotlib.org/) -->
<svg height="480.78pt" version="1.1" viewBox="0 0 572.4 480.78" width="572.4pt" xmlns="http://www.w3.org/2000/svg" xmlns:xlink="http://www.w3.org/1999/xlink">
 <metadata>
  <rdf:RDF xmlns:cc="http://creativecommons.org/ns#" xmlns:dc="http://purl.org/dc/elements/1.1/" xmlns:rdf="http://www.w3.org/1999/02/22-rdf-syntax-ns#">
   <cc:Work>
    <dc:type rdf:resource="http://purl.org/dc/dcmitype/StillImage"/>
    <dc:date>2025-01-18T19:40:48.854874</dc:date>
    <dc:format>image/svg+xml</dc:format>
    <dc:creator>
     <cc:Agent>
      <dc:title>Matplotlib v3.3.4, https://matplotlib.org/</dc:title>
     </cc:Agent>
    </dc:creator>
   </cc:Work>
  </rdf:RDF>
 </metadata>
 <defs>
  <style type="text/css">*{stroke-linecap:butt;stroke-linejoin:round;}</style>
 </defs>
 <g id="figure_1">
  <g id="patch_1">
   <path d="M 0 480.78 
L 572.4 480.78 
L 572.4 0 
L 0 0 
z
" style="fill:#ffffff;"/>
  </g>
  <g id="axes_1">
   <g id="LineCollection_1">
    <path clip-path="url(#pa82285f6cf)" d="M 460.619403 161.708636 
L 516.778512 186.780619 
" style="fill:none;stroke:#808080;stroke-opacity:0.5;"/>
    <path clip-path="url(#pa82285f6cf)" d="M 460.619403 161.708636 
L 412.456903 244.48335 
" style="fill:none;stroke:#808080;stroke-opacity:0.5;"/>
    <path clip-path="url(#pa82285f6cf)" d="M 516.778512 186.780619 
L 412.456903 244.48335 
" style="fill:none;stroke:#808080;stroke-opacity:0.5;"/>
    <path clip-path="url(#pa82285f6cf)" d="M 412.456903 244.48335 
L 217.57337 302.20025 
" style="fill:none;stroke:#808080;stroke-opacity:0.5;"/>
    <path clip-path="url(#pa82285f6cf)" d="M 412.456903 244.48335 
L 426.622641 299.104124 
" style="fill:none;stroke:#808080;stroke-opacity:0.5;"/>
    <path clip-path="url(#pa82285f6cf)" d="M 412.456903 244.48335 
L 372.502702 346.889023 
" style="fill:none;stroke:#808080;stroke-opacity:0.5;"/>
    <path clip-path="url(#pa82285f6cf)" d="M 276.017007 322.210558 
L 217.57337 302.20025 
" style="fill:none;stroke:#808080;stroke-opacity:0.5;"/>
    <path clip-path="url(#pa82285f6cf)" d="M 276.017007 322.210558 
L 426.622641 299.104124 
" style="fill:none;stroke:#808080;stroke-opacity:0.5;"/>
    <path clip-path="url(#pa82285f6cf)" d="M 276.017007 322.210558 
L 372.502702 346.889023 
" style="fill:none;stroke:#808080;stroke-opacity:0.5;"/>
    <path clip-path="url(#pa82285f6cf)" d="M 276.017007 322.210558 
L 141.14205 376.370781 
" style="fill:none;stroke:#808080;stroke-opacity:0.5;"/>
    <path clip-path="url(#pa82285f6cf)" d="M 276.017007 322.210558 
L 301.63988 257.284856 
" style="fill:none;stroke:#808080;stroke-opacity:0.5;"/>
    <path clip-path="url(#pa82285f6cf)" d="M 276.017007 322.210558 
L 156.970399 275.52878 
" style="fill:none;stroke:#808080;stroke-opacity:0.5;"/>
    <path clip-path="url(#pa82285f6cf)" d="M 217.57337 302.20025 
L 372.502702 346.889023 
" style="fill:none;stroke:#808080;stroke-opacity:0.5;"/>
    <path clip-path="url(#pa82285f6cf)" d="M 217.57337 302.20025 
L 74.257238 396.921234 
" style="fill:none;stroke:#808080;stroke-opacity:0.5;"/>
    <path clip-path="url(#pa82285f6cf)" d="M 217.57337 302.20025 
L 203.765197 372.494365 
" style="fill:none;stroke:#808080;stroke-opacity:0.5;"/>
    <path clip-path="url(#pa82285f6cf)" d="M 217.57337 302.20025 
L 238.274463 227.365989 
" style="fill:none;stroke:#808080;stroke-opacity:0.5;"/>
    <path clip-path="url(#pa82285f6cf)" d="M 217.57337 302.20025 
L 301.63988 257.284856 
" style="fill:none;stroke:#808080;stroke-opacity:0.5;"/>
    <path clip-path="url(#pa82285f6cf)" d="M 217.57337 302.20025 
L 102.221591 333.715199 
" style="fill:none;stroke:#808080;stroke-opacity:0.5;"/>
    <path clip-path="url(#pa82285f6cf)" d="M 217.57337 302.20025 
L 106.463813 214.491849 
" style="fill:none;stroke:#808080;stroke-opacity:0.5;"/>
    <path clip-path="url(#pa82285f6cf)" d="M 217.57337 302.20025 
L 156.970399 275.52878 
" style="fill:none;stroke:#808080;stroke-opacity:0.5;"/>
    <path clip-path="url(#pa82285f6cf)" d="M 426.622641 299.104124 
L 372.502702 346.889023 
" style="fill:none;stroke:#808080;stroke-opacity:0.5;"/>
    <path clip-path="url(#pa82285f6cf)" d="M 372.502702 346.889023 
L 203.765197 372.494365 
" style="fill:none;stroke:#808080;stroke-opacity:0.5;"/>
    <path clip-path="url(#pa82285f6cf)" d="M 372.502702 346.889023 
L 508.5669 393.322161 
" style="fill:none;stroke:#808080;stroke-opacity:0.5;"/>
    <path clip-path="url(#pa82285f6cf)" d="M 372.502702 346.889023 
L 475.197317 427.078546 
" style="fill:none;stroke:#808080;stroke-opacity:0.5;"/>
    <path clip-path="url(#pa82285f6cf)" d="M 141.14205 376.370781 
L 55.621488 435.842479 
" style="fill:none;stroke:#808080;stroke-opacity:0.5;"/>
    <path clip-path="url(#pa82285f6cf)" d="M 301.63988 257.284856 
L 238.274463 227.365989 
" style="fill:none;stroke:#808080;stroke-opacity:0.5;"/>
    <path clip-path="url(#pa82285f6cf)" d="M 156.970399 275.52878 
L 238.274463 227.365989 
" style="fill:none;stroke:#808080;stroke-opacity:0.5;"/>
    <path clip-path="url(#pa82285f6cf)" d="M 156.970399 275.52878 
L 102.221591 333.715199 
" style="fill:none;stroke:#808080;stroke-opacity:0.5;"/>
    <path clip-path="url(#pa82285f6cf)" d="M 74.257238 396.921234 
L 203.765197 372.494365 
" style="fill:none;stroke:#808080;stroke-opacity:0.5;"/>
    <path clip-path="url(#pa82285f6cf)" d="M 74.257238 396.921234 
L 496.014419 76.437521 
" style="fill:none;stroke:#808080;stroke-opacity:0.5;"/>
    <path clip-path="url(#pa82285f6cf)" d="M 74.257238 396.921234 
L 102.221591 333.715199 
" style="fill:none;stroke:#808080;stroke-opacity:0.5;"/>
    <path clip-path="url(#pa82285f6cf)" d="M 203.765197 372.494365 
L 102.221591 333.715199 
" style="fill:none;stroke:#808080;stroke-opacity:0.5;"/>
    <path clip-path="url(#pa82285f6cf)" d="M 508.5669 393.322161 
L 475.197317 427.078546 
" style="fill:none;stroke:#808080;stroke-opacity:0.5;"/>
   </g>
   <g id="PathCollection_1">
    <path clip-path="url(#pa82285f6cf)" d="M 460.619403 169.162196 
C 462.596111 169.162196 464.492123 168.376842 465.889866 166.979099 
C 467.287609 165.581356 468.072963 163.685344 468.072963 161.708636 
C 468.072963 159.731929 467.287609 157.835917 465.889866 156.438174 
C 464.492123 155.040431 462.596111 154.255076 460.619403 154.255076 
C 458.642696 154.255076 456.746684 155.040431 455.348941 156.438174 
C 453.951198 157.835917 453.165844 159.731929 453.165844 161.708636 
C 453.165844 163.685344 453.951198 165.581356 455.348941 166.979099 
C 456.746684 168.376842 458.642696 169.162196 460.619403 169.162196 
z
" style="fill:#87ceeb;fill-opacity:0.8;stroke:#87ceeb;stroke-opacity:0.8;"/>
    <path clip-path="url(#pa82285f6cf)" d="M 516.778512 194.234179 
C 518.75522 194.234179 520.651232 193.448825 522.048975 192.051081 
C 523.446718 190.653338 524.232072 188.757326 524.232072 186.780619 
C 524.232072 184.803911 523.446718 182.907899 522.048975 181.510156 
C 520.651232 180.112413 518.75522 179.327059 516.778512 179.327059 
C 514.801805 179.327059 512.905793 180.112413 511.50805 181.510156 
C 510.110307 182.907899 509.324952 184.803911 509.324952 186.780619 
C 509.324952 188.757326 510.110307 190.653338 511.50805 192.051081 
C 512.905793 193.448825 514.801805 194.234179 516.778512 194.234179 
z
" style="fill:#87ceeb;fill-opacity:0.8;stroke:#87ceeb;stroke-opacity:0.8;"/>
    <path clip-path="url(#pa82285f6cf)" d="M 412.456903 256.268463 
C 415.582352 256.268463 418.580211 255.02671 420.790237 252.816684 
C 423.000262 250.606658 424.242016 247.608799 424.242016 244.48335 
C 424.242016 241.357902 423.000262 238.360043 420.790237 236.150017 
C 418.580211 233.939991 415.582352 232.698237 412.456903 232.698237 
C 409.331455 232.698237 406.333596 233.939991 404.12357 236.150017 
C 401.913544 238.360043 400.67179 241.357902 400.67179 244.48335 
C 400.67179 247.608799 401.913544 250.606658 404.12357 252.816684 
C 406.333596 255.02671 409.331455 256.268463 412.456903 256.268463 
z
" style="fill:#87ceeb;fill-opacity:0.8;stroke:#87ceeb;stroke-opacity:0.8;"/>
    <path clip-path="url(#pa82285f6cf)" d="M 276.017007 335.120503 
C 279.440764 335.120503 282.724754 333.760229 285.145716 331.339267 
C 287.566678 328.918305 288.926951 325.634315 288.926951 322.210558 
C 288.926951 318.786801 287.566678 315.502811 285.145716 313.081849 
C 282.724754 310.660887 279.440764 309.300614 276.017007 309.300614 
C 272.593249 309.300614 269.309259 310.660887 266.888297 313.081849 
C 264.467335 315.502811 263.107062 318.786801 263.107062 322.210558 
C 263.107062 325.634315 264.467335 328.918305 266.888297 331.339267 
C 269.309259 333.760229 272.593249 335.120503 276.017007 335.120503 
z
" style="fill:#87ceeb;fill-opacity:0.8;stroke:#87ceeb;stroke-opacity:0.8;"/>
    <path clip-path="url(#pa82285f6cf)" d="M 217.57337 318.866917 
C 221.993422 318.866917 226.233035 317.110811 229.358483 313.985363 
C 232.483932 310.859914 234.240037 306.620302 234.240037 302.20025 
C 234.240037 297.780198 232.483932 293.540585 229.358483 290.415137 
C 226.233035 287.289688 221.993422 285.533583 217.57337 285.533583 
C 213.153319 285.533583 208.913706 287.289688 205.788257 290.415137 
C 202.662809 293.540585 200.906704 297.780198 200.906704 302.20025 
C 200.906704 306.620302 202.662809 310.859914 205.788257 313.985363 
C 208.913706 317.110811 213.153319 318.866917 217.57337 318.866917 
z
" style="fill:#87ceeb;fill-opacity:0.8;stroke:#87ceeb;stroke-opacity:0.8;"/>
    <path clip-path="url(#pa82285f6cf)" d="M 426.622641 308.232834 
C 429.043603 308.232834 431.365735 307.270975 433.077614 305.559096 
C 434.789492 303.847218 435.751351 301.525086 435.751351 299.104124 
C 435.751351 296.683162 434.789492 294.361031 433.077614 292.649152 
C 431.365735 290.937273 429.043603 289.975415 426.622641 289.975415 
C 424.201679 289.975415 421.879548 290.937273 420.167669 292.649152 
C 418.455791 294.361031 417.493932 296.683162 417.493932 299.104124 
C 417.493932 301.525086 418.455791 303.847218 420.167669 305.559096 
C 421.879548 307.270975 424.201679 308.232834 426.622641 308.232834 
z
" style="fill:#87ceeb;fill-opacity:0.8;stroke:#87ceeb;stroke-opacity:0.8;"/>
    <path clip-path="url(#pa82285f6cf)" d="M 372.502702 360.833357 
C 376.200783 360.833357 379.747897 359.364094 382.362835 356.749156 
C 384.977773 354.134219 386.447036 350.587104 386.447036 346.889023 
C 386.447036 343.190943 384.977773 339.643828 382.362835 337.02889 
C 379.747897 334.413953 376.200783 332.94469 372.502702 332.94469 
C 368.804622 332.94469 365.257507 334.413953 362.642569 337.02889 
C 360.027631 339.643828 358.558368 343.190943 358.558368 346.889023 
C 358.558368 350.587104 360.027631 354.134219 362.642569 356.749156 
C 365.257507 359.364094 368.804622 360.833357 372.502702 360.833357 
z
" style="fill:#87ceeb;fill-opacity:0.8;stroke:#87ceeb;stroke-opacity:0.8;"/>
    <path clip-path="url(#pa82285f6cf)" d="M 141.14205 383.824341 
C 143.118758 383.824341 145.01477 383.038987 146.412513 381.641244 
C 147.810256 380.243501 148.59561 378.347488 148.59561 376.370781 
C 148.59561 374.394074 147.810256 372.498061 146.412513 371.100318 
C 145.01477 369.702575 143.118758 368.917221 141.14205 368.917221 
C 139.165343 368.917221 137.269331 369.702575 135.871588 371.100318 
C 134.473845 372.498061 133.68849 374.394074 133.68849 376.370781 
C 133.68849 378.347488 134.473845 380.243501 135.871588 381.641244 
C 137.269331 383.038987 139.165343 383.824341 141.14205 383.824341 
z
" style="fill:#87ceeb;fill-opacity:0.8;stroke:#87ceeb;stroke-opacity:0.8;"/>
    <path clip-path="url(#pa82285f6cf)" d="M 301.63988 266.413565 
C 304.060842 266.413565 306.382973 265.451707 308.094852 263.739828 
C 309.806731 262.027949 310.768589 259.705818 310.768589 257.284856 
C 310.768589 254.863894 309.806731 252.541762 308.094852 250.829883 
C 306.382973 249.118005 304.060842 248.156146 301.63988 248.156146 
C 299.218918 248.156146 296.896786 249.118005 295.184908 250.829883 
C 293.473029 252.541762 292.511171 254.863894 292.511171 257.284856 
C 292.511171 259.705818 293.473029 262.027949 295.184908 263.739828 
C 296.896786 265.451707 299.218918 266.413565 301.63988 266.413565 
z
" style="fill:#87ceeb;fill-opacity:0.8;stroke:#87ceeb;stroke-opacity:0.8;"/>
    <path clip-path="url(#pa82285f6cf)" d="M 156.970399 286.069706 
C 159.765885 286.069706 162.447252 284.959048 164.423959 282.98234 
C 166.400666 281.005633 167.511325 278.324267 167.511325 275.52878 
C 167.511325 272.733294 166.400666 270.051928 164.423959 268.07522 
C 162.447252 266.098513 159.765885 264.987855 156.970399 264.987855 
C 154.174913 264.987855 151.493546 266.098513 149.516839 268.07522 
C 147.540132 270.051928 146.429474 272.733294 146.429474 275.52878 
C 146.429474 278.324267 147.540132 281.005633 149.516839 282.98234 
C 151.493546 284.959048 154.174913 286.069706 156.970399 286.069706 
z
" style="fill:#87ceeb;fill-opacity:0.8;stroke:#87ceeb;stroke-opacity:0.8;"/>
    <path clip-path="url(#pa82285f6cf)" d="M 74.257238 407.462159 
C 77.052725 407.462159 79.734091 406.351501 81.710798 404.374794 
C 83.687506 402.398087 84.798164 399.71672 84.798164 396.921234 
C 84.798164 394.125748 83.687506 391.444381 81.710798 389.467674 
C 79.734091 387.490967 77.052725 386.380308 74.257238 386.380308 
C 71.461752 386.380308 68.780386 387.490967 66.803678 389.467674 
C 64.826971 391.444381 63.716313 394.125748 63.716313 396.921234 
C 63.716313 399.71672 64.826971 402.398087 66.803678 404.374794 
C 68.780386 406.351501 71.461752 407.462159 74.257238 407.462159 
z
" style="fill:#87ceeb;fill-opacity:0.8;stroke:#87ceeb;stroke-opacity:0.8;"/>
    <path clip-path="url(#pa82285f6cf)" d="M 203.765197 383.035291 
C 206.560683 383.035291 209.24205 381.924632 211.218757 379.947925 
C 213.195464 377.971218 214.306123 375.289851 214.306123 372.494365 
C 214.306123 369.698879 213.195464 367.017512 211.218757 365.040805 
C 209.24205 363.064098 206.560683 361.95344 203.765197 361.95344 
C 200.969711 361.95344 198.288344 363.064098 196.311637 365.040805 
C 194.33493 367.017512 193.224272 369.698879 193.224272 372.494365 
C 193.224272 375.289851 194.33493 377.971218 196.311637 379.947925 
C 198.288344 381.924632 200.969711 383.035291 203.765197 383.035291 
z
" style="fill:#87ceeb;fill-opacity:0.8;stroke:#87ceeb;stroke-opacity:0.8;"/>
    <path clip-path="url(#pa82285f6cf)" d="M 238.274463 236.494698 
C 240.695425 236.494698 243.017557 235.53284 244.729435 233.820961 
C 246.441314 232.109083 247.403172 229.786951 247.403172 227.365989 
C 247.403172 224.945027 246.441314 222.622895 244.729435 220.911017 
C 243.017557 219.199138 240.695425 218.23728 238.274463 218.23728 
C 235.853501 218.23728 233.531369 219.199138 231.819491 220.911017 
C 230.107612 222.622895 229.145754 224.945027 229.145754 227.365989 
C 229.145754 229.786951 230.107612 232.109083 231.819491 233.820961 
C 233.531369 235.53284 235.853501 236.494698 238.274463 236.494698 
z
" style="fill:#87ceeb;fill-opacity:0.8;stroke:#87ceeb;stroke-opacity:0.8;"/>
    <path clip-path="url(#pa82285f6cf)" d="M 102.221591 344.256124 
C 105.017077 344.256124 107.698443 343.145466 109.675151 341.168758 
C 111.651858 339.192051 112.762516 336.510685 112.762516 333.715199 
C 112.762516 330.919712 111.651858 328.238346 109.675151 326.261639 
C 107.698443 324.284931 105.017077 323.174273 102.221591 323.174273 
C 99.426104 323.174273 96.744738 324.284931 94.768031 326.261639 
C 92.791323 328.238346 91.680665 330.919712 91.680665 333.715199 
C 91.680665 336.510685 92.791323 339.192051 94.768031 341.168758 
C 96.744738 343.145466 99.426104 344.256124 102.221591 344.256124 
z
" style="fill:#87ceeb;fill-opacity:0.8;stroke:#87ceeb;stroke-opacity:0.8;"/>
    <path clip-path="url(#pa82285f6cf)" d="M 106.463813 219.762312 
C 107.861556 219.762312 109.202239 219.206983 110.190593 218.218629 
C 111.178946 217.230275 111.734276 215.889592 111.734276 214.491849 
C 111.734276 213.094106 111.178946 211.753423 110.190593 210.765069 
C 109.202239 209.776715 107.861556 209.221386 106.463813 209.221386 
C 105.06607 209.221386 103.725387 209.776715 102.737033 210.765069 
C 101.748679 211.753423 101.19335 213.094106 101.19335 214.491849 
C 101.19335 215.889592 101.748679 217.230275 102.737033 218.218629 
C 103.725387 219.206983 105.06607 219.762312 106.463813 219.762312 
z
" style="fill:#87ceeb;fill-opacity:0.8;stroke:#87ceeb;stroke-opacity:0.8;"/>
    <path clip-path="url(#pa82285f6cf)" d="M 508.5669 400.775721 
C 510.543607 400.775721 512.43962 399.990367 513.837363 398.592624 
C 515.235106 397.194881 516.02046 395.298869 516.02046 393.322161 
C 516.02046 391.345454 515.235106 389.449442 513.837363 388.051699 
C 512.43962 386.653955 510.543607 385.868601 508.5669 385.868601 
C 506.590193 385.868601 504.69418 386.653955 503.296437 388.051699 
C 501.898694 389.449442 501.11334 391.345454 501.11334 393.322161 
C 501.11334 395.298869 501.898694 397.194881 503.296437 398.592624 
C 504.69418 399.990367 506.590193 400.775721 508.5669 400.775721 
z
" style="fill:#87ceeb;fill-opacity:0.8;stroke:#87ceeb;stroke-opacity:0.8;"/>
    <path clip-path="url(#pa82285f6cf)" d="M 475.197317 434.532106 
C 477.174025 434.532106 479.070037 433.746752 480.46778 432.349009 
C 481.865523 430.951266 482.650877 429.055253 482.650877 427.078546 
C 482.650877 425.101839 481.865523 423.205826 480.46778 421.808083 
C 479.070037 420.41034 477.174025 419.624986 475.197317 419.624986 
C 473.22061 419.624986 471.324598 420.41034 469.926855 421.808083 
C 468.529111 423.205826 467.743757 425.101839 467.743757 427.078546 
C 467.743757 429.055253 468.529111 430.951266 469.926855 432.349009 
C 471.324598 433.746752 473.22061 434.532106 475.197317 434.532106 
z
" style="fill:#87ceeb;fill-opacity:0.8;stroke:#87ceeb;stroke-opacity:0.8;"/>
    <path clip-path="url(#pa82285f6cf)" d="M 55.621488 441.112942 
C 57.019231 441.112942 58.359914 440.557613 59.348268 439.569259 
C 60.336621 438.580906 60.89195 437.240222 60.89195 435.842479 
C 60.89195 434.444736 60.336621 433.104053 59.348268 432.115699 
C 58.359914 431.127346 57.019231 430.572017 55.621488 430.572017 
C 54.223745 430.572017 52.883061 431.127346 51.894708 432.115699 
C 50.906354 433.104053 50.351025 434.444736 50.351025 435.842479 
C 50.351025 437.240222 50.906354 438.580906 51.894708 439.569259 
C 52.883061 440.557613 54.223745 441.112942 55.621488 441.112942 
z
" style="fill:#87ceeb;fill-opacity:0.8;stroke:#87ceeb;stroke-opacity:0.8;"/>
    <path clip-path="url(#pa82285f6cf)" d="M 496.014419 81.707983 
C 497.412162 81.707983 498.752845 81.152654 499.741199 80.164301 
C 500.729552 79.175947 501.284881 77.835264 501.284881 76.437521 
C 501.284881 75.039778 500.729552 73.699094 499.741199 72.710741 
C 498.752845 71.722387 497.412162 71.167058 496.014419 71.167058 
C 494.616675 71.167058 493.275992 71.722387 492.287639 72.710741 
C 491.299285 73.699094 490.743956 75.039778 490.743956 76.437521 
C 490.743956 77.835264 491.299285 79.175947 492.287639 80.164301 
C 493.275992 81.152654 494.616675 81.707983 496.014419 81.707983 
z
" style="fill:#87ceeb;fill-opacity:0.8;stroke:#87ceeb;stroke-opacity:0.8;"/>
   </g>
   <g id="text_1">
    <g clip-path="url(#pa82285f6cf)">
     <!-- cMyc -->
     <g transform="translate(441.955653 165.751136)scale(0.16 -0.16)">
      <defs>
       <path d="M 40.4375 19 
L 49.078125 17.875 
Q 47.65625 8.9375 41.8125 3.875 
Q 35.984375 -1.171875 27.484375 -1.171875 
Q 16.84375 -1.171875 10.375 5.78125 
Q 3.90625 12.75 3.90625 25.734375 
Q 3.90625 34.125 6.6875 40.421875 
Q 9.46875 46.734375 15.15625 49.875 
Q 20.84375 53.03125 27.546875 53.03125 
Q 35.984375 53.03125 41.359375 48.75 
Q 46.734375 44.484375 48.25 36.625 
L 39.703125 35.296875 
Q 38.484375 40.53125 35.375 43.15625 
Q 32.28125 45.796875 27.875 45.796875 
Q 21.234375 45.796875 17.078125 41.03125 
Q 12.9375 36.28125 12.9375 25.984375 
Q 12.9375 15.53125 16.9375 10.796875 
Q 20.953125 6.0625 27.390625 6.0625 
Q 32.5625 6.0625 36.03125 9.234375 
Q 39.5 12.40625 40.4375 19 
z
" id="ArialMT-99"/>
       <path d="M 7.421875 0 
L 7.421875 71.578125 
L 21.6875 71.578125 
L 38.625 20.90625 
Q 40.96875 13.8125 42.046875 10.296875 
Q 43.265625 14.203125 45.84375 21.78125 
L 62.984375 71.578125 
L 75.734375 71.578125 
L 75.734375 0 
L 66.609375 0 
L 66.609375 59.90625 
L 45.796875 0 
L 37.25 0 
L 16.546875 60.9375 
L 16.546875 0 
z
" id="ArialMT-77"/>
       <path d="M 6.203125 -19.96875 
L 5.21875 -11.71875 
Q 8.109375 -12.5 10.25 -12.5 
Q 13.1875 -12.5 14.9375 -11.515625 
Q 16.703125 -10.546875 17.828125 -8.796875 
Q 18.65625 -7.46875 20.515625 -2.25 
Q 20.75 -1.515625 21.296875 -0.09375 
L 1.609375 51.859375 
L 11.078125 51.859375 
L 21.875 21.828125 
Q 23.96875 16.109375 25.640625 9.8125 
Q 27.15625 15.875 29.25 21.625 
L 40.328125 51.859375 
L 49.125 51.859375 
L 29.390625 -0.875 
Q 26.21875 -9.421875 24.46875 -12.640625 
Q 22.125 -17 19.09375 -19.015625 
Q 16.0625 -21.046875 11.859375 -21.046875 
Q 9.328125 -21.046875 6.203125 -19.96875 
z
" id="ArialMT-121"/>
      </defs>
      <use xlink:href="#ArialMT-99"/>
      <use x="50" xlink:href="#ArialMT-77"/>
      <use x="133.300781" xlink:href="#ArialMT-121"/>
      <use x="183.300781" xlink:href="#ArialMT-99"/>
     </g>
    </g>
   </g>
   <g id="text_2">
    <g clip-path="url(#pa82285f6cf)">
     <!-- cMycS62 -->
     <g transform="translate(483.881012 190.920619)scale(0.16 -0.16)">
      <defs>
       <path d="M 4.5 23 
L 13.421875 23.78125 
Q 14.0625 18.40625 16.375 14.96875 
Q 18.703125 11.53125 23.578125 9.40625 
Q 28.46875 7.28125 34.578125 7.28125 
Q 39.984375 7.28125 44.140625 8.890625 
Q 48.296875 10.5 50.3125 13.296875 
Q 52.34375 16.109375 52.34375 19.4375 
Q 52.34375 22.796875 50.390625 25.3125 
Q 48.4375 27.828125 43.953125 29.546875 
Q 41.0625 30.671875 31.203125 33.03125 
Q 21.34375 35.40625 17.390625 37.5 
Q 12.25 40.1875 9.734375 44.15625 
Q 7.234375 48.140625 7.234375 53.078125 
Q 7.234375 58.5 10.296875 63.203125 
Q 13.375 67.921875 19.28125 70.359375 
Q 25.203125 72.796875 32.421875 72.796875 
Q 40.375 72.796875 46.453125 70.234375 
Q 52.546875 67.671875 55.8125 62.6875 
Q 59.078125 57.71875 59.328125 51.421875 
L 50.25 50.734375 
Q 49.515625 57.515625 45.28125 60.984375 
Q 41.0625 64.453125 32.8125 64.453125 
Q 24.21875 64.453125 20.28125 61.296875 
Q 16.359375 58.15625 16.359375 53.71875 
Q 16.359375 49.859375 19.140625 47.359375 
Q 21.875 44.875 33.421875 42.265625 
Q 44.96875 39.65625 49.265625 37.703125 
Q 55.515625 34.8125 58.484375 30.390625 
Q 61.46875 25.984375 61.46875 20.21875 
Q 61.46875 14.5 58.203125 9.4375 
Q 54.9375 4.390625 48.796875 1.578125 
Q 42.671875 -1.21875 35.015625 -1.21875 
Q 25.296875 -1.21875 18.71875 1.609375 
Q 12.15625 4.4375 8.421875 10.125 
Q 4.6875 15.828125 4.5 23 
z
" id="ArialMT-83"/>
       <path d="M 49.75 54.046875 
L 41.015625 53.375 
Q 39.84375 58.546875 37.703125 60.890625 
Q 34.125 64.65625 28.90625 64.65625 
Q 24.703125 64.65625 21.53125 62.3125 
Q 17.390625 59.28125 14.984375 53.46875 
Q 12.59375 47.65625 12.5 36.921875 
Q 15.671875 41.75 20.265625 44.09375 
Q 24.859375 46.4375 29.890625 46.4375 
Q 38.671875 46.4375 44.84375 39.96875 
Q 51.03125 33.5 51.03125 23.25 
Q 51.03125 16.5 48.125 10.71875 
Q 45.21875 4.9375 40.140625 1.859375 
Q 35.0625 -1.21875 28.609375 -1.21875 
Q 17.625 -1.21875 10.6875 6.859375 
Q 3.765625 14.9375 3.765625 33.5 
Q 3.765625 54.25 11.421875 63.671875 
Q 18.109375 71.875 29.4375 71.875 
Q 37.890625 71.875 43.28125 67.140625 
Q 48.6875 62.40625 49.75 54.046875 
z
M 13.875 23.1875 
Q 13.875 18.65625 15.796875 14.5 
Q 17.71875 10.359375 21.1875 8.171875 
Q 24.65625 6 28.46875 6 
Q 34.03125 6 38.03125 10.484375 
Q 42.046875 14.984375 42.046875 22.703125 
Q 42.046875 30.125 38.078125 34.390625 
Q 34.125 38.671875 28.125 38.671875 
Q 22.171875 38.671875 18.015625 34.390625 
Q 13.875 30.125 13.875 23.1875 
z
" id="ArialMT-54"/>
       <path d="M 50.34375 8.453125 
L 50.34375 0 
L 3.03125 0 
Q 2.9375 3.171875 4.046875 6.109375 
Q 5.859375 10.9375 9.828125 15.625 
Q 13.8125 20.3125 21.34375 26.46875 
Q 33.015625 36.03125 37.109375 41.625 
Q 41.21875 47.21875 41.21875 52.203125 
Q 41.21875 57.421875 37.46875 61 
Q 33.734375 64.59375 27.734375 64.59375 
Q 21.390625 64.59375 17.578125 60.78125 
Q 13.765625 56.984375 13.71875 50.25 
L 4.6875 51.171875 
Q 5.609375 61.28125 11.65625 66.578125 
Q 17.71875 71.875 27.9375 71.875 
Q 38.234375 71.875 44.234375 66.15625 
Q 50.25 60.453125 50.25 52 
Q 50.25 47.703125 48.484375 43.546875 
Q 46.734375 39.40625 42.65625 34.8125 
Q 38.578125 30.21875 29.109375 22.21875 
Q 21.1875 15.578125 18.9375 13.203125 
Q 16.703125 10.84375 15.234375 8.453125 
z
" id="ArialMT-50"/>
      </defs>
      <use xlink:href="#ArialMT-99"/>
      <use x="50" xlink:href="#ArialMT-77"/>
      <use x="133.300781" xlink:href="#ArialMT-121"/>
      <use x="183.300781" xlink:href="#ArialMT-99"/>
      <use x="233.300781" xlink:href="#ArialMT-83"/>
      <use x="300" xlink:href="#ArialMT-54"/>
      <use x="355.615234" xlink:href="#ArialMT-50"/>
     </g>
    </g>
   </g>
   <g id="text_3">
    <g clip-path="url(#pa82285f6cf)">
     <!-- cMycT58 -->
     <g transform="translate(380.009403 248.5496)scale(0.16 -0.16)">
      <defs>
       <path d="M 25.921875 0 
L 25.921875 63.140625 
L 2.34375 63.140625 
L 2.34375 71.578125 
L 59.078125 71.578125 
L 59.078125 63.140625 
L 35.40625 63.140625 
L 35.40625 0 
z
" id="ArialMT-84"/>
       <path d="M 4.15625 18.75 
L 13.375 19.53125 
Q 14.40625 12.796875 18.140625 9.390625 
Q 21.875 6 27.15625 6 
Q 33.5 6 37.890625 10.78125 
Q 42.28125 15.578125 42.28125 23.484375 
Q 42.28125 31 38.0625 35.34375 
Q 33.84375 39.703125 27 39.703125 
Q 22.75 39.703125 19.328125 37.765625 
Q 15.921875 35.84375 13.96875 32.765625 
L 5.71875 33.84375 
L 12.640625 70.609375 
L 48.25 70.609375 
L 48.25 62.203125 
L 19.671875 62.203125 
L 15.828125 42.96875 
Q 22.265625 47.46875 29.34375 47.46875 
Q 38.71875 47.46875 45.15625 40.96875 
Q 51.609375 34.46875 51.609375 24.265625 
Q 51.609375 14.546875 45.953125 7.46875 
Q 39.0625 -1.21875 27.15625 -1.21875 
Q 17.390625 -1.21875 11.203125 4.25 
Q 5.03125 9.71875 4.15625 18.75 
z
" id="ArialMT-53"/>
       <path d="M 17.671875 38.8125 
Q 12.203125 40.828125 9.5625 44.53125 
Q 6.9375 48.25 6.9375 53.421875 
Q 6.9375 61.234375 12.546875 66.546875 
Q 18.171875 71.875 27.484375 71.875 
Q 36.859375 71.875 42.578125 66.421875 
Q 48.296875 60.984375 48.296875 53.171875 
Q 48.296875 48.1875 45.671875 44.5 
Q 43.0625 40.828125 37.75 38.8125 
Q 44.34375 36.671875 47.78125 31.875 
Q 51.21875 27.09375 51.21875 20.453125 
Q 51.21875 11.28125 44.71875 5.03125 
Q 38.234375 -1.21875 27.640625 -1.21875 
Q 17.046875 -1.21875 10.546875 5.046875 
Q 4.046875 11.328125 4.046875 20.703125 
Q 4.046875 27.6875 7.59375 32.390625 
Q 11.140625 37.109375 17.671875 38.8125 
z
M 15.921875 53.71875 
Q 15.921875 48.640625 19.1875 45.40625 
Q 22.46875 42.1875 27.6875 42.1875 
Q 32.765625 42.1875 36.015625 45.375 
Q 39.265625 48.578125 39.265625 53.21875 
Q 39.265625 58.0625 35.90625 61.359375 
Q 32.5625 64.65625 27.59375 64.65625 
Q 22.5625 64.65625 19.234375 61.421875 
Q 15.921875 58.203125 15.921875 53.71875 
z
M 13.09375 20.65625 
Q 13.09375 16.890625 14.875 13.375 
Q 16.65625 9.859375 20.171875 7.921875 
Q 23.6875 6 27.734375 6 
Q 34.03125 6 38.125 10.046875 
Q 42.234375 14.109375 42.234375 20.359375 
Q 42.234375 26.703125 38.015625 30.859375 
Q 33.796875 35.015625 27.4375 35.015625 
Q 21.234375 35.015625 17.15625 30.90625 
Q 13.09375 26.8125 13.09375 20.65625 
z
" id="ArialMT-56"/>
      </defs>
      <use xlink:href="#ArialMT-99"/>
      <use x="50" xlink:href="#ArialMT-77"/>
      <use x="133.300781" xlink:href="#ArialMT-121"/>
      <use x="183.300781" xlink:href="#ArialMT-99"/>
      <use x="233.300781" xlink:href="#ArialMT-84"/>
      <use x="294.384766" xlink:href="#ArialMT-53"/>
      <use x="350" xlink:href="#ArialMT-56"/>
     </g>
    </g>
   </g>
   <g id="text_4">
    <g clip-path="url(#pa82285f6cf)">
     <!-- BRD4 -->
     <g transform="translate(254.677007 326.346808)scale(0.16 -0.16)">
      <defs>
       <path d="M 7.328125 0 
L 7.328125 71.578125 
L 34.1875 71.578125 
Q 42.390625 71.578125 47.34375 69.40625 
Q 52.296875 67.234375 55.09375 62.71875 
Q 57.90625 58.203125 57.90625 53.265625 
Q 57.90625 48.6875 55.421875 44.625 
Q 52.9375 40.578125 47.90625 38.09375 
Q 54.390625 36.1875 57.875 31.59375 
Q 61.375 27 61.375 20.75 
Q 61.375 15.71875 59.25 11.390625 
Q 57.125 7.078125 54 4.734375 
Q 50.875 2.390625 46.15625 1.1875 
Q 41.453125 0 34.625 0 
z
M 16.796875 41.5 
L 32.28125 41.5 
Q 38.578125 41.5 41.3125 42.328125 
Q 44.921875 43.40625 46.75 45.890625 
Q 48.578125 48.390625 48.578125 52.15625 
Q 48.578125 55.71875 46.875 58.421875 
Q 45.171875 61.140625 41.984375 62.140625 
Q 38.8125 63.140625 31.109375 63.140625 
L 16.796875 63.140625 
z
M 16.796875 8.453125 
L 34.625 8.453125 
Q 39.203125 8.453125 41.0625 8.796875 
Q 44.34375 9.375 46.53125 10.734375 
Q 48.734375 12.109375 50.140625 14.71875 
Q 51.5625 17.328125 51.5625 20.75 
Q 51.5625 24.75 49.515625 27.703125 
Q 47.46875 30.671875 43.828125 31.859375 
Q 40.1875 33.0625 33.34375 33.0625 
L 16.796875 33.0625 
z
" id="ArialMT-66"/>
       <path d="M 7.859375 0 
L 7.859375 71.578125 
L 39.59375 71.578125 
Q 49.171875 71.578125 54.140625 69.640625 
Q 59.125 67.71875 62.109375 62.828125 
Q 65.09375 57.953125 65.09375 52.046875 
Q 65.09375 44.4375 60.15625 39.203125 
Q 55.21875 33.984375 44.921875 32.5625 
Q 48.6875 30.765625 50.640625 29 
Q 54.78125 25.203125 58.5 19.484375 
L 70.953125 0 
L 59.03125 0 
L 49.5625 14.890625 
Q 45.40625 21.34375 42.71875 24.75 
Q 40.046875 28.171875 37.921875 29.53125 
Q 35.796875 30.90625 33.59375 31.453125 
Q 31.984375 31.78125 28.328125 31.78125 
L 17.328125 31.78125 
L 17.328125 0 
z
M 17.328125 39.984375 
L 37.703125 39.984375 
Q 44.1875 39.984375 47.84375 41.328125 
Q 51.515625 42.671875 53.421875 45.625 
Q 55.328125 48.578125 55.328125 52.046875 
Q 55.328125 57.125 51.640625 60.390625 
Q 47.953125 63.671875 39.984375 63.671875 
L 17.328125 63.671875 
z
" id="ArialMT-82"/>
       <path d="M 7.71875 0 
L 7.71875 71.578125 
L 32.375 71.578125 
Q 40.71875 71.578125 45.125 70.5625 
Q 51.265625 69.140625 55.609375 65.4375 
Q 61.28125 60.640625 64.078125 53.1875 
Q 66.890625 45.75 66.890625 36.1875 
Q 66.890625 28.03125 64.984375 21.734375 
Q 63.09375 15.4375 60.109375 11.296875 
Q 57.125 7.171875 53.578125 4.796875 
Q 50.046875 2.4375 45.046875 1.21875 
Q 40.046875 0 33.546875 0 
z
M 17.1875 8.453125 
L 32.46875 8.453125 
Q 39.546875 8.453125 43.578125 9.765625 
Q 47.609375 11.078125 50 13.484375 
Q 53.375 16.84375 55.25 22.53125 
Q 57.125 28.21875 57.125 36.328125 
Q 57.125 47.5625 53.4375 53.59375 
Q 49.75 59.625 44.484375 61.671875 
Q 40.671875 63.140625 32.234375 63.140625 
L 17.1875 63.140625 
z
" id="ArialMT-68"/>
       <path d="M 32.328125 0 
L 32.328125 17.140625 
L 1.265625 17.140625 
L 1.265625 25.203125 
L 33.9375 71.578125 
L 41.109375 71.578125 
L 41.109375 25.203125 
L 50.78125 25.203125 
L 50.78125 17.140625 
L 41.109375 17.140625 
L 41.109375 0 
z
M 32.328125 25.203125 
L 32.328125 57.46875 
L 9.90625 25.203125 
z
" id="ArialMT-52"/>
      </defs>
      <use xlink:href="#ArialMT-66"/>
      <use x="66.699219" xlink:href="#ArialMT-82"/>
      <use x="138.916016" xlink:href="#ArialMT-68"/>
      <use x="211.132812" xlink:href="#ArialMT-52"/>
     </g>
    </g>
   </g>
   <g id="text_5">
    <g clip-path="url(#pa82285f6cf)">
     <!-- CDK2 -->
     <g transform="translate(196.23337 306.3365)scale(0.16 -0.16)">
      <defs>
       <path d="M 58.796875 25.09375 
L 68.265625 22.703125 
Q 65.28125 11.03125 57.546875 4.90625 
Q 49.8125 -1.21875 38.625 -1.21875 
Q 27.046875 -1.21875 19.796875 3.484375 
Q 12.546875 8.203125 8.765625 17.140625 
Q 4.984375 26.078125 4.984375 36.328125 
Q 4.984375 47.515625 9.25 55.828125 
Q 13.53125 64.15625 21.40625 68.46875 
Q 29.296875 72.796875 38.765625 72.796875 
Q 49.515625 72.796875 56.828125 67.328125 
Q 64.15625 61.859375 67.046875 51.953125 
L 57.71875 49.75 
Q 55.21875 57.5625 50.484375 61.125 
Q 45.75 64.703125 38.578125 64.703125 
Q 30.328125 64.703125 24.78125 60.734375 
Q 19.234375 56.78125 16.984375 50.109375 
Q 14.75 43.453125 14.75 36.375 
Q 14.75 27.25 17.40625 20.4375 
Q 20.0625 13.625 25.671875 10.25 
Q 31.296875 6.890625 37.84375 6.890625 
Q 45.796875 6.890625 51.3125 11.46875 
Q 56.84375 16.0625 58.796875 25.09375 
z
" id="ArialMT-67"/>
       <path d="M 7.328125 0 
L 7.328125 71.578125 
L 16.796875 71.578125 
L 16.796875 36.078125 
L 52.34375 71.578125 
L 65.1875 71.578125 
L 35.15625 42.578125 
L 66.5 0 
L 54 0 
L 28.515625 36.234375 
L 16.796875 24.8125 
L 16.796875 0 
z
" id="ArialMT-75"/>
      </defs>
      <use xlink:href="#ArialMT-67"/>
      <use x="72.216797" xlink:href="#ArialMT-68"/>
      <use x="144.433594" xlink:href="#ArialMT-75"/>
      <use x="211.132812" xlink:href="#ArialMT-50"/>
     </g>
    </g>
   </g>
   <g id="text_6">
    <g clip-path="url(#pa82285f6cf)">
     <!-- CyclinD1 -->
     <g transform="translate(394.615141 303.244124)scale(0.16 -0.16)">
      <defs>
       <path d="M 6.390625 0 
L 6.390625 71.578125 
L 15.1875 71.578125 
L 15.1875 0 
z
" id="ArialMT-108"/>
       <path d="M 6.640625 61.46875 
L 6.640625 71.578125 
L 15.4375 71.578125 
L 15.4375 61.46875 
z
M 6.640625 0 
L 6.640625 51.859375 
L 15.4375 51.859375 
L 15.4375 0 
z
" id="ArialMT-105"/>
       <path d="M 6.59375 0 
L 6.59375 51.859375 
L 14.5 51.859375 
L 14.5 44.484375 
Q 20.21875 53.03125 31 53.03125 
Q 35.6875 53.03125 39.625 51.34375 
Q 43.5625 49.65625 45.515625 46.921875 
Q 47.46875 44.1875 48.25 40.4375 
Q 48.734375 37.984375 48.734375 31.890625 
L 48.734375 0 
L 39.9375 0 
L 39.9375 31.546875 
Q 39.9375 36.921875 38.90625 39.578125 
Q 37.890625 42.234375 35.28125 43.8125 
Q 32.671875 45.40625 29.15625 45.40625 
Q 23.53125 45.40625 19.453125 41.84375 
Q 15.375 38.28125 15.375 28.328125 
L 15.375 0 
z
" id="ArialMT-110"/>
       <path d="M 37.25 0 
L 28.46875 0 
L 28.46875 56 
Q 25.296875 52.984375 20.140625 49.953125 
Q 14.984375 46.921875 10.890625 45.40625 
L 10.890625 53.90625 
Q 18.265625 57.375 23.78125 62.296875 
Q 29.296875 67.234375 31.59375 71.875 
L 37.25 71.875 
z
" id="ArialMT-49"/>
      </defs>
      <use xlink:href="#ArialMT-67"/>
      <use x="72.216797" xlink:href="#ArialMT-121"/>
      <use x="122.216797" xlink:href="#ArialMT-99"/>
      <use x="172.216797" xlink:href="#ArialMT-108"/>
      <use x="194.433594" xlink:href="#ArialMT-105"/>
      <use x="216.650391" xlink:href="#ArialMT-110"/>
      <use x="272.265625" xlink:href="#ArialMT-68"/>
      <use x="344.482422" xlink:href="#ArialMT-49"/>
     </g>
    </g>
   </g>
   <g id="text_7">
    <g clip-path="url(#pa82285f6cf)">
     <!-- EZH2_1 -->
     <g transform="translate(343.156452 351.049023)scale(0.16 -0.16)">
      <defs>
       <path d="M 7.90625 0 
L 7.90625 71.578125 
L 59.671875 71.578125 
L 59.671875 63.140625 
L 17.390625 63.140625 
L 17.390625 41.21875 
L 56.984375 41.21875 
L 56.984375 32.8125 
L 17.390625 32.8125 
L 17.390625 8.453125 
L 61.328125 8.453125 
L 61.328125 0 
z
" id="ArialMT-69"/>
       <path d="M 2 0 
L 2 8.796875 
L 38.671875 54.640625 
Q 42.578125 59.515625 46.09375 63.140625 
L 6.15625 63.140625 
L 6.15625 71.578125 
L 57.421875 71.578125 
L 57.421875 63.140625 
L 17.234375 13.484375 
L 12.890625 8.453125 
L 58.59375 8.453125 
L 58.59375 0 
z
" id="ArialMT-90"/>
       <path d="M 8.015625 0 
L 8.015625 71.578125 
L 17.484375 71.578125 
L 17.484375 42.1875 
L 54.6875 42.1875 
L 54.6875 71.578125 
L 64.15625 71.578125 
L 64.15625 0 
L 54.6875 0 
L 54.6875 33.734375 
L 17.484375 33.734375 
L 17.484375 0 
z
" id="ArialMT-72"/>
       <path d="M -1.515625 -19.875 
L -1.515625 -13.53125 
L 56.734375 -13.53125 
L 56.734375 -19.875 
z
" id="ArialMT-95"/>
      </defs>
      <use xlink:href="#ArialMT-69"/>
      <use x="66.699219" xlink:href="#ArialMT-90"/>
      <use x="127.783203" xlink:href="#ArialMT-72"/>
      <use x="200" xlink:href="#ArialMT-50"/>
      <use x="255.615234" xlink:href="#ArialMT-95"/>
      <use x="311.230469" xlink:href="#ArialMT-49"/>
     </g>
    </g>
   </g>
   <g id="text_8">
    <g clip-path="url(#pa82285f6cf)">
     <!-- FOXO1 -->
     <g transform="translate(114.0258 380.507031)scale(0.16 -0.16)">
      <defs>
       <path d="M 8.203125 0 
L 8.203125 71.578125 
L 56.5 71.578125 
L 56.5 63.140625 
L 17.671875 63.140625 
L 17.671875 40.96875 
L 51.265625 40.96875 
L 51.265625 32.515625 
L 17.671875 32.515625 
L 17.671875 0 
z
" id="ArialMT-70"/>
       <path d="M 4.828125 34.859375 
Q 4.828125 52.6875 14.390625 62.765625 
Q 23.96875 72.859375 39.109375 72.859375 
Q 49.03125 72.859375 56.984375 68.109375 
Q 64.9375 63.375 69.109375 54.90625 
Q 73.296875 46.4375 73.296875 35.6875 
Q 73.296875 24.8125 68.890625 16.21875 
Q 64.5 7.625 56.4375 3.203125 
Q 48.390625 -1.21875 39.0625 -1.21875 
Q 28.953125 -1.21875 20.984375 3.65625 
Q 13.03125 8.546875 8.921875 16.984375 
Q 4.828125 25.4375 4.828125 34.859375 
z
M 14.59375 34.71875 
Q 14.59375 21.78125 21.546875 14.328125 
Q 28.515625 6.890625 39.015625 6.890625 
Q 49.703125 6.890625 56.609375 14.40625 
Q 63.53125 21.921875 63.53125 35.75 
Q 63.53125 44.484375 60.578125 51 
Q 57.625 57.515625 51.921875 61.109375 
Q 46.234375 64.703125 39.15625 64.703125 
Q 29.109375 64.703125 21.84375 57.78125 
Q 14.59375 50.875 14.59375 34.71875 
z
" id="ArialMT-79"/>
       <path d="M 0.4375 0 
L 28.125 37.3125 
L 3.71875 71.578125 
L 14.984375 71.578125 
L 27.984375 53.21875 
Q 32.03125 47.515625 33.734375 44.4375 
Q 36.140625 48.34375 39.40625 52.59375 
L 53.8125 71.578125 
L 64.109375 71.578125 
L 38.96875 37.84375 
L 66.0625 0 
L 54.34375 0 
L 36.328125 25.53125 
Q 34.8125 27.734375 33.203125 30.328125 
Q 30.8125 26.421875 29.78125 24.953125 
L 11.8125 0 
z
" id="ArialMT-88"/>
      </defs>
      <use xlink:href="#ArialMT-70"/>
      <use x="61.083984" xlink:href="#ArialMT-79"/>
      <use x="138.867188" xlink:href="#ArialMT-88"/>
      <use x="205.566406" xlink:href="#ArialMT-79"/>
      <use x="283.349609" xlink:href="#ArialMT-49"/>
     </g>
    </g>
   </g>
   <g id="text_9">
    <g clip-path="url(#pa82285f6cf)">
     <!-- Rb -->
     <g transform="translate(291.41363 261.421106)scale(0.16 -0.16)">
      <defs>
       <path d="M 14.703125 0 
L 6.546875 0 
L 6.546875 71.578125 
L 15.328125 71.578125 
L 15.328125 46.046875 
Q 20.90625 53.03125 29.546875 53.03125 
Q 34.328125 53.03125 38.59375 51.09375 
Q 42.875 49.171875 45.625 45.671875 
Q 48.390625 42.1875 49.953125 37.25 
Q 51.515625 32.328125 51.515625 26.703125 
Q 51.515625 13.375 44.921875 6.09375 
Q 38.328125 -1.171875 29.109375 -1.171875 
Q 19.921875 -1.171875 14.703125 6.5 
z
M 14.59375 26.3125 
Q 14.59375 17 17.140625 12.84375 
Q 21.296875 6.0625 28.375 6.0625 
Q 34.125 6.0625 38.328125 11.0625 
Q 42.53125 16.0625 42.53125 25.984375 
Q 42.53125 36.140625 38.5 40.96875 
Q 34.46875 45.796875 28.765625 45.796875 
Q 23 45.796875 18.796875 40.796875 
Q 14.59375 35.796875 14.59375 26.3125 
z
" id="ArialMT-98"/>
      </defs>
      <use xlink:href="#ArialMT-82"/>
      <use x="72.216797" xlink:href="#ArialMT-98"/>
     </g>
    </g>
   </g>
   <g id="text_10">
    <g clip-path="url(#pa82285f6cf)">
     <!-- EZH2_2 -->
     <g transform="translate(127.624149 279.68878)scale(0.16 -0.16)">
      <use xlink:href="#ArialMT-69"/>
      <use x="66.699219" xlink:href="#ArialMT-90"/>
      <use x="127.783203" xlink:href="#ArialMT-72"/>
      <use x="200" xlink:href="#ArialMT-50"/>
      <use x="255.615234" xlink:href="#ArialMT-95"/>
      <use x="311.230469" xlink:href="#ArialMT-50"/>
     </g>
    </g>
   </g>
   <g id="text_11">
    <g clip-path="url(#pa82285f6cf)">
     <!-- CyclinA -->
     <g transform="translate(47.139738 401.061234)scale(0.16 -0.16)">
      <defs>
       <path d="M -0.140625 0 
L 27.34375 71.578125 
L 37.546875 71.578125 
L 66.84375 0 
L 56.0625 0 
L 47.703125 21.6875 
L 17.78125 21.6875 
L 9.90625 0 
z
M 20.515625 29.390625 
L 44.78125 29.390625 
L 37.3125 49.21875 
Q 33.890625 58.25 32.234375 64.0625 
Q 30.859375 57.171875 28.375 50.390625 
z
" id="ArialMT-65"/>
      </defs>
      <use xlink:href="#ArialMT-67"/>
      <use x="72.216797" xlink:href="#ArialMT-121"/>
      <use x="122.216797" xlink:href="#ArialMT-99"/>
      <use x="172.216797" xlink:href="#ArialMT-108"/>
      <use x="194.433594" xlink:href="#ArialMT-105"/>
      <use x="216.650391" xlink:href="#ArialMT-110"/>
      <use x="272.265625" xlink:href="#ArialMT-65"/>
     </g>
    </g>
   </g>
   <g id="text_12">
    <g clip-path="url(#pa82285f6cf)">
     <!-- CyclinB1 -->
     <g transform="translate(172.198947 376.634365)scale(0.16 -0.16)">
      <use xlink:href="#ArialMT-67"/>
      <use x="72.216797" xlink:href="#ArialMT-121"/>
      <use x="122.216797" xlink:href="#ArialMT-99"/>
      <use x="172.216797" xlink:href="#ArialMT-108"/>
      <use x="194.433594" xlink:href="#ArialMT-105"/>
      <use x="216.650391" xlink:href="#ArialMT-110"/>
      <use x="272.265625" xlink:href="#ArialMT-66"/>
      <use x="338.964844" xlink:href="#ArialMT-49"/>
     </g>
    </g>
   </g>
   <g id="text_13">
    <g clip-path="url(#pa82285f6cf)">
     <!-- pRb -->
     <g transform="translate(223.599463 231.502239)scale(0.16 -0.16)">
      <defs>
       <path d="M 6.59375 -19.875 
L 6.59375 51.859375 
L 14.59375 51.859375 
L 14.59375 45.125 
Q 17.4375 49.078125 21 51.046875 
Q 24.5625 53.03125 29.640625 53.03125 
Q 36.28125 53.03125 41.359375 49.609375 
Q 46.4375 46.1875 49.015625 39.953125 
Q 51.609375 33.734375 51.609375 26.3125 
Q 51.609375 18.359375 48.75 11.984375 
Q 45.90625 5.609375 40.453125 2.21875 
Q 35.015625 -1.171875 29 -1.171875 
Q 24.609375 -1.171875 21.109375 0.6875 
Q 17.625 2.546875 15.375 5.375 
L 15.375 -19.875 
z
M 14.546875 25.640625 
Q 14.546875 15.625 18.59375 10.84375 
Q 22.65625 6.0625 28.421875 6.0625 
Q 34.28125 6.0625 38.453125 11.015625 
Q 42.625 15.96875 42.625 26.375 
Q 42.625 36.28125 38.546875 41.203125 
Q 34.46875 46.140625 28.8125 46.140625 
Q 23.1875 46.140625 18.859375 40.890625 
Q 14.546875 35.640625 14.546875 25.640625 
z
" id="ArialMT-112"/>
      </defs>
      <use xlink:href="#ArialMT-112"/>
      <use x="55.615234" xlink:href="#ArialMT-82"/>
      <use x="127.832031" xlink:href="#ArialMT-98"/>
     </g>
    </g>
   </g>
   <g id="text_14">
    <g clip-path="url(#pa82285f6cf)">
     <!-- SKP2 -->
     <g transform="translate(81.764091 337.851449)scale(0.16 -0.16)">
      <defs>
       <path d="M 7.71875 0 
L 7.71875 71.578125 
L 34.71875 71.578125 
Q 41.84375 71.578125 45.609375 70.90625 
Q 50.875 70.015625 54.4375 67.546875 
Q 58.015625 65.09375 60.1875 60.640625 
Q 62.359375 56.203125 62.359375 50.875 
Q 62.359375 41.75 56.546875 35.421875 
Q 50.734375 29.109375 35.546875 29.109375 
L 17.1875 29.109375 
L 17.1875 0 
z
M 17.1875 37.546875 
L 35.6875 37.546875 
Q 44.875 37.546875 48.734375 40.96875 
Q 52.59375 44.390625 52.59375 50.59375 
Q 52.59375 55.078125 50.3125 58.265625 
Q 48.046875 61.46875 44.34375 62.5 
Q 41.9375 63.140625 35.5 63.140625 
L 17.1875 63.140625 
z
" id="ArialMT-80"/>
      </defs>
      <use xlink:href="#ArialMT-83"/>
      <use x="66.699219" xlink:href="#ArialMT-75"/>
      <use x="133.398438" xlink:href="#ArialMT-80"/>
      <use x="200.097656" xlink:href="#ArialMT-50"/>
     </g>
    </g>
   </g>
   <g id="text_15">
    <g clip-path="url(#pa82285f6cf)">
     <!-- ZEB1 -->
     <g transform="translate(488.5594 397.458411)scale(0.16 -0.16)">
      <use xlink:href="#ArialMT-90"/>
      <use x="61.083984" xlink:href="#ArialMT-69"/>
      <use x="127.783203" xlink:href="#ArialMT-66"/>
      <use x="194.482422" xlink:href="#ArialMT-49"/>
     </g>
    </g>
   </g>
   <g id="text_16">
    <g clip-path="url(#pa82285f6cf)">
     <!-- p21 -->
     <g transform="translate(461.851067 431.238546)scale(0.16 -0.16)">
      <use xlink:href="#ArialMT-112"/>
      <use x="55.615234" xlink:href="#ArialMT-50"/>
      <use x="111.230469" xlink:href="#ArialMT-49"/>
     </g>
    </g>
   </g>
   <g id="text_17">
    <!-- Low HER2 Network_nuclear -->
    <g style="fill:#262626;" transform="translate(185.71625 18.7)scale(0.16 -0.16)">
     <defs>
      <path d="M 7.328125 0 
L 7.328125 71.578125 
L 16.796875 71.578125 
L 16.796875 8.453125 
L 52.046875 8.453125 
L 52.046875 0 
z
" id="ArialMT-76"/>
      <path d="M 3.328125 25.921875 
Q 3.328125 40.328125 11.328125 47.265625 
Q 18.015625 53.03125 27.640625 53.03125 
Q 38.328125 53.03125 45.109375 46.015625 
Q 51.90625 39.015625 51.90625 26.65625 
Q 51.90625 16.65625 48.90625 10.90625 
Q 45.90625 5.171875 40.15625 2 
Q 34.421875 -1.171875 27.640625 -1.171875 
Q 16.75 -1.171875 10.03125 5.8125 
Q 3.328125 12.796875 3.328125 25.921875 
z
M 12.359375 25.921875 
Q 12.359375 15.96875 16.703125 11.015625 
Q 21.046875 6.0625 27.640625 6.0625 
Q 34.1875 6.0625 38.53125 11.03125 
Q 42.875 16.015625 42.875 26.21875 
Q 42.875 35.84375 38.5 40.796875 
Q 34.125 45.75 27.640625 45.75 
Q 21.046875 45.75 16.703125 40.8125 
Q 12.359375 35.890625 12.359375 25.921875 
z
" id="ArialMT-111"/>
      <path d="M 16.15625 0 
L 0.296875 51.859375 
L 9.375 51.859375 
L 17.625 21.921875 
L 20.703125 10.796875 
Q 20.90625 11.625 23.390625 21.484375 
L 31.640625 51.859375 
L 40.671875 51.859375 
L 48.4375 21.78125 
L 51.03125 11.859375 
L 54 21.875 
L 62.890625 51.859375 
L 71.4375 51.859375 
L 55.21875 0 
L 46.09375 0 
L 37.84375 31.0625 
L 35.84375 39.890625 
L 25.34375 0 
z
" id="ArialMT-119"/>
      <path id="ArialMT-32"/>
      <path d="M 7.625 0 
L 7.625 71.578125 
L 17.328125 71.578125 
L 54.9375 15.375 
L 54.9375 71.578125 
L 64.015625 71.578125 
L 64.015625 0 
L 54.296875 0 
L 16.703125 56.25 
L 16.703125 0 
z
" id="ArialMT-78"/>
      <path d="M 42.09375 16.703125 
L 51.171875 15.578125 
Q 49.03125 7.625 43.21875 3.21875 
Q 37.40625 -1.171875 28.375 -1.171875 
Q 17 -1.171875 10.328125 5.828125 
Q 3.65625 12.84375 3.65625 25.484375 
Q 3.65625 38.578125 10.390625 45.796875 
Q 17.140625 53.03125 27.875 53.03125 
Q 38.28125 53.03125 44.875 45.953125 
Q 51.46875 38.875 51.46875 26.03125 
Q 51.46875 25.25 51.421875 23.6875 
L 12.75 23.6875 
Q 13.234375 15.140625 17.578125 10.59375 
Q 21.921875 6.0625 28.421875 6.0625 
Q 33.25 6.0625 36.671875 8.59375 
Q 40.09375 11.140625 42.09375 16.703125 
z
M 13.234375 30.90625 
L 42.1875 30.90625 
Q 41.609375 37.453125 38.875 40.71875 
Q 34.671875 45.796875 27.984375 45.796875 
Q 21.921875 45.796875 17.796875 41.75 
Q 13.671875 37.703125 13.234375 30.90625 
z
" id="ArialMT-101"/>
      <path d="M 25.78125 7.859375 
L 27.046875 0.09375 
Q 23.34375 -0.6875 20.40625 -0.6875 
Q 15.625 -0.6875 12.984375 0.828125 
Q 10.359375 2.34375 9.28125 4.8125 
Q 8.203125 7.28125 8.203125 15.1875 
L 8.203125 45.015625 
L 1.765625 45.015625 
L 1.765625 51.859375 
L 8.203125 51.859375 
L 8.203125 64.703125 
L 16.9375 69.96875 
L 16.9375 51.859375 
L 25.78125 51.859375 
L 25.78125 45.015625 
L 16.9375 45.015625 
L 16.9375 14.703125 
Q 16.9375 10.9375 17.40625 9.859375 
Q 17.875 8.796875 18.921875 8.15625 
Q 19.96875 7.515625 21.921875 7.515625 
Q 23.390625 7.515625 25.78125 7.859375 
z
" id="ArialMT-116"/>
      <path d="M 6.5 0 
L 6.5 51.859375 
L 14.40625 51.859375 
L 14.40625 44 
Q 17.4375 49.515625 20 51.265625 
Q 22.5625 53.03125 25.640625 53.03125 
Q 30.078125 53.03125 34.671875 50.203125 
L 31.640625 42.046875 
Q 28.421875 43.953125 25.203125 43.953125 
Q 22.3125 43.953125 20.015625 42.21875 
Q 17.71875 40.484375 16.75 37.40625 
Q 15.28125 32.71875 15.28125 27.15625 
L 15.28125 0 
z
" id="ArialMT-114"/>
      <path d="M 6.640625 0 
L 6.640625 71.578125 
L 15.4375 71.578125 
L 15.4375 30.765625 
L 36.234375 51.859375 
L 47.609375 51.859375 
L 27.78125 32.625 
L 49.609375 0 
L 38.765625 0 
L 21.625 26.515625 
L 15.4375 20.5625 
L 15.4375 0 
z
" id="ArialMT-107"/>
      <path d="M 40.578125 0 
L 40.578125 7.625 
Q 34.515625 -1.171875 24.125 -1.171875 
Q 19.53125 -1.171875 15.546875 0.578125 
Q 11.578125 2.34375 9.640625 5 
Q 7.71875 7.671875 6.9375 11.53125 
Q 6.390625 14.109375 6.390625 19.734375 
L 6.390625 51.859375 
L 15.1875 51.859375 
L 15.1875 23.09375 
Q 15.1875 16.21875 15.71875 13.8125 
Q 16.546875 10.359375 19.234375 8.375 
Q 21.921875 6.390625 25.875 6.390625 
Q 29.828125 6.390625 33.296875 8.421875 
Q 36.765625 10.453125 38.203125 13.9375 
Q 39.65625 17.4375 39.65625 24.078125 
L 39.65625 51.859375 
L 48.4375 51.859375 
L 48.4375 0 
z
" id="ArialMT-117"/>
      <path d="M 40.4375 6.390625 
Q 35.546875 2.25 31.03125 0.53125 
Q 26.515625 -1.171875 21.34375 -1.171875 
Q 12.796875 -1.171875 8.203125 3 
Q 3.609375 7.171875 3.609375 13.671875 
Q 3.609375 17.484375 5.34375 20.625 
Q 7.078125 23.78125 9.890625 25.6875 
Q 12.703125 27.59375 16.21875 28.5625 
Q 18.796875 29.25 24.03125 29.890625 
Q 34.671875 31.15625 39.703125 32.90625 
Q 39.75 34.71875 39.75 35.203125 
Q 39.75 40.578125 37.25 42.78125 
Q 33.890625 45.75 27.25 45.75 
Q 21.046875 45.75 18.09375 43.578125 
Q 15.140625 41.40625 13.71875 35.890625 
L 5.125 37.0625 
Q 6.296875 42.578125 8.984375 45.96875 
Q 11.671875 49.359375 16.75 51.1875 
Q 21.828125 53.03125 28.515625 53.03125 
Q 35.15625 53.03125 39.296875 51.46875 
Q 43.453125 49.90625 45.40625 47.53125 
Q 47.359375 45.171875 48.140625 41.546875 
Q 48.578125 39.3125 48.578125 33.453125 
L 48.578125 21.734375 
Q 48.578125 9.46875 49.140625 6.21875 
Q 49.703125 2.984375 51.375 0 
L 42.1875 0 
Q 40.828125 2.734375 40.4375 6.390625 
z
M 39.703125 26.03125 
Q 34.90625 24.078125 25.34375 22.703125 
Q 19.921875 21.921875 17.671875 20.9375 
Q 15.4375 19.96875 14.203125 18.09375 
Q 12.984375 16.21875 12.984375 13.921875 
Q 12.984375 10.40625 15.640625 8.0625 
Q 18.3125 5.71875 23.4375 5.71875 
Q 28.515625 5.71875 32.46875 7.9375 
Q 36.421875 10.15625 38.28125 14.015625 
Q 39.703125 17 39.703125 22.796875 
z
" id="ArialMT-97"/>
     </defs>
     <use xlink:href="#ArialMT-76"/>
     <use x="55.615234" xlink:href="#ArialMT-111"/>
     <use x="111.230469" xlink:href="#ArialMT-119"/>
     <use x="183.447266" xlink:href="#ArialMT-32"/>
     <use x="211.230469" xlink:href="#ArialMT-72"/>
     <use x="283.447266" xlink:href="#ArialMT-69"/>
     <use x="350.146484" xlink:href="#ArialMT-82"/>
     <use x="422.363281" xlink:href="#ArialMT-50"/>
     <use x="477.978516" xlink:href="#ArialMT-32"/>
     <use x="505.761719" xlink:href="#ArialMT-78"/>
     <use x="577.978516" xlink:href="#ArialMT-101"/>
     <use x="633.59375" xlink:href="#ArialMT-116"/>
     <use x="661.376953" xlink:href="#ArialMT-119"/>
     <use x="733.59375" xlink:href="#ArialMT-111"/>
     <use x="789.208984" xlink:href="#ArialMT-114"/>
     <use x="822.509766" xlink:href="#ArialMT-107"/>
     <use x="872.509766" xlink:href="#ArialMT-95"/>
     <use x="928.125" xlink:href="#ArialMT-110"/>
     <use x="983.740234" xlink:href="#ArialMT-117"/>
     <use x="1039.355469" xlink:href="#ArialMT-99"/>
     <use x="1089.355469" xlink:href="#ArialMT-108"/>
     <use x="1111.572266" xlink:href="#ArialMT-101"/>
     <use x="1167.1875" xlink:href="#ArialMT-97"/>
     <use x="1222.802734" xlink:href="#ArialMT-114"/>
    </g>
   </g>
  </g>
 </g>
 <defs>
  <clipPath id="pa82285f6cf">
   <rect height="434.88" width="558" x="7.2" y="38.7"/>
  </clipPath>
 </defs>
</svg>
